<?xml version="1.0"?>
<svg xmlns="http://www.w3.org/2000/svg" viewBox="0 0 64 64" width="512" height="512" fill = "#006699"><g id="outline"><path d="M58,25.1V18a5.006,5.006,0,0,0-5-5H11a5.006,5.006,0,0,0-5,5v7.1A5.009,5.009,0,0,0,2,30V52H62V30A5.009,5.009,0,0,0,58,25.1ZM8,18a3,3,0,0,1,3-3H53a3,3,0,0,1,3,3v7H54V19H10v6H8Zm8,5V21H27v2h2V21h2v4H12V21h2v2Zm21,0V21H48v2h2V21h2v4H33V21h2v2ZM60,50H4V38H60Zm0-14H4V34H60ZM4,32V30a3,3,0,0,1,3-3H57a3,3,0,0,1,3,3v2Z"/><polygon points="58 43 56 43 56 46 53 46 53 48 58 48 58 43"/><rect x="49" y="46" width="2" height="2"/></g></svg>
