<?xml version="1.0" encoding="iso-8859-1"?>
<!-- Generator: Adobe Illustrator 16.0.0, SVG Export Plug-In . SVG Version: 6.00 Build 0)  -->
<!DOCTYPE svg PUBLIC "-//W3C//DTD SVG 1.1//EN" "http://www.w3.org/Graphics/SVG/1.1/DTD/svg11.dtd">
<svg version="1.1" id="Capa_1" xmlns="http://www.w3.org/2000/svg" xmlns:xlink="http://www.w3.org/1999/xlink" x="0px" y="0px"
	 width="73.17px" height="73.169px" viewBox="0 0 73.17 73.169" style="enable-background:new 0 0 73.17 73.169;"
	 xml:space="preserve">
<g>
	<g id="Settings_1_">
		<g>
			<path d="M68.198,21.628V8.146c0-2.369-1.919-4.295-4.288-4.295c-2.365,0-4.283,1.926-4.283,4.295v13.481
				c-2.953,1.547-4.973,4.639-4.973,8.211c0,3.572,2.02,6.667,4.973,8.216v26.97c0,2.377,1.918,4.295,4.283,4.295
				c2.369,0,4.288-1.918,4.288-4.295V38.053c2.954-1.549,4.972-4.644,4.972-8.215C73.17,26.267,71.152,23.176,68.198,21.628z
				 M13.543,16.252V8.146c0-2.369-1.918-4.295-4.287-4.295c-2.365,0-4.283,1.926-4.283,4.295v8.105C2.019,17.8,0,20.896,0,24.467
				c0,3.573,2.019,6.668,4.973,8.217v32.34c0,2.377,1.918,4.295,4.283,4.295c2.369,0,4.287-1.918,4.287-4.295V32.683
				c2.954-1.549,4.972-4.644,4.972-8.216C18.515,20.897,16.497,17.801,13.543,16.252z M41.309,36.673V8.146
				c0-2.369-1.918-4.295-4.287-4.295c-2.366,0-4.288,1.926-4.288,4.295v28.528c-2.952,1.549-4.969,4.644-4.969,8.215
				c0,3.569,2.017,6.66,4.969,8.208v11.927c0,2.377,1.922,4.295,4.288,4.295c2.369,0,4.287-1.918,4.287-4.295V53.098
				c2.953-1.547,4.971-4.64,4.971-8.209C46.279,41.317,44.264,38.222,41.309,36.673z"/>
		</g>
	</g>
</g>
<g>
</g>
<g>
</g>
<g>
</g>
<g>
</g>
<g>
</g>
<g>
</g>
<g>
</g>
<g>
</g>
<g>
</g>
<g>
</g>
<g>
</g>
<g>
</g>
<g>
</g>
<g>
</g>
<g>
</g>
</svg>
