<?xml version="1.0"?>
<svg xmlns="http://www.w3.org/2000/svg" viewBox="0 0 64 64" width="512" height="512" fill = "#FFCC66"><g id="outline"><rect x="27" y="36" width="10" height="2"/><rect x="50" y="44" width="4" height="2"/><rect x="50" y="52" width="4" height="2"/><path d="M50,24a4,4,0,0,0-4,4H40V24H37V22H47V2H17V22H27v2H24v4H15V20H13V12H11v8H9V16H7v4H5v8H2v6H4V62h6V42H44V62H60V34h2V28H54A4,4,0,0,0,50,24Zm0,2a2,2,0,0,1,2,2H48A2,2,0,0,1,50,26ZM19,4H45V16H19Zm0,16V18H45v2Zm10,2h6v2H29Zm-3,4H38v2H26ZM7,22h6v6H7ZM8,60H6V42H8Zm50,0H46V50H58Zm0-12H46V42H58Zm0-8H6V34H58Zm2-10v2H4V30Z"/></g></svg>
