<?xml version="1.0" encoding="UTF-8" standalone="no"?>
<!DOCTYPE svg PUBLIC "-//W3C//DTD SVG 1.1//EN"
 "http://www.w3.org/Graphics/SVG/1.1/DTD/svg11.dtd">
<!-- Generated by graphviz version 2.40.1 (0)
 -->
<!-- Title: BatCaveNetwork Pages: 1 -->
<svg width="1057pt" height="666pt"
 viewBox="0.00 0.00 1057.00 666.00" xmlns="http://www.w3.org/2000/svg" xmlns:xlink="http://www.w3.org/1999/xlink">
<g id="graph0" class="graph" transform="scale(1 1) rotate(0) translate(4 662)">
<title>BatCaveNetwork</title>
<polygon fill="#000000" stroke="transparent" points="-4,4 -4,-662 1053,-662 1053,4 -4,4"/>
<g id="clust1" class="cluster">
<title>cluster_0</title>
</g>
<g id="clust2" class="cluster">
<title>cluster_1</title>
<polygon fill="none" stroke="#C77000" points="447,-436 447,-556 597,-556 597,-436 447,-436"/>
</g>
<g id="clust3" class="cluster">
<title>cluster_2</title>
<polygon fill="none" stroke="#C77000" stroke-dasharray="1,5" points="658,-319 658,-393 740,-393 740,-319 658,-319"/>
</g>
<g id="clust4" class="cluster">
<title>cluster_3</title>
<polygon fill="none" stroke="#C77000" points="8,-8 8,-416 515,-416 515,-8 8,-8"/>
</g>
<g id="clust5" class="cluster">
<title>cluster_3intern</title>
<polygon fill="none" stroke="#C77000" stroke-dasharray="1,5" points="16,-16 16,-276 507,-276 507,-16 16,-16"/>
</g>
<g id="clust6" class="cluster">
<title>cluster_4</title>
<polygon fill="none" stroke="#C77000" points="523,-156 523,-276 697,-276 697,-156 523,-156"/>
</g>
<g id="clust7" class="cluster">
<title>cluster_5</title>
<polygon fill="none" stroke="#C77000" points="705,-156 705,-276 873,-276 873,-156 705,-156"/>
</g>
<g id="clust8" class="cluster">
<title>cluster_6</title>
<polygon fill="none" stroke="#C77000" points="881,-156 881,-276 1041,-276 1041,-156 881,-156"/>
</g>
<!-- cloud -->
<g id="node1" class="node">
<title>cloud</title>
<g id="a_node1"><a xlink:href="www.google.com" xlink:title="&lt;TABLE&gt;" target="blank">
<image xlink:href="icons/cloud.svg" width="42px" height="42px" preserveAspectRatio="xMinYMin meet" x="501" y="-634"/>
</a>
</g>
</g>
<!-- upc -->
<g id="node2" class="node">
<title>upc</title>
<g id="a_node2"><a xlink:href="http://192.168.0.1/" xlink:title="&lt;TABLE&gt;" target="blank">
<image xlink:href="icons/upc.png" width="42px" height="42px" preserveAspectRatio="xMinYMin meet" x="501" y="-540"/>
<polygon fill="#add8e6" stroke="transparent" points="463,-471 463,-494 581,-494 581,-471 463,-471"/>
<text text-anchor="start" x="474" y="-479.8" font-family="Times,serif" font-weight="bold" font-size="14.00" fill="#000000">UPC Router</text>
<text text-anchor="start" x="467" y="-455.8" font-family="Times,serif" font-size="14.00" fill="#FFCC66">IP: 192.168.0.1</text>
</a>
</g>
</g>
<!-- cloud&#45;&gt;upc -->
<g id="edge6" class="edge">
<title>cloud&#45;&gt;upc</title>
<path fill="none" stroke="#CC6699" d="M522,-573.713C522,-568.6966 522,-563.4681 522,-558.1994"/>
<polygon fill="#CC6699" stroke="#CC6699" points="518.5001,-573.7777 522,-583.7778 525.5001,-573.7778 518.5001,-573.7777"/>
<polygon fill="#CC6699" stroke="#CC6699" points="525.5001,-558.0631 522,-548.0632 518.5001,-558.0632 525.5001,-558.0631"/>
</g>
<!-- wifi -->
<g id="node3" class="node">
<title>wifi</title>
<image xlink:href="icons/wifi.svg" width="42px" height="42px" preserveAspectRatio="xMinYMin meet" x="678" y="-377"/>
</g>
<!-- upc&#45;&gt;wifi -->
<g id="edge8" class="edge">
<title>upc&#45;&gt;wifi</title>
<path fill="none" stroke="#CC6699" d="M595.7564,-437.6616C616.8883,-420.9471 639.1741,-403.3199 657.6103,-388.7376"/>
<polygon fill="#CC6699" stroke="#CC6699" points="593.5802,-434.9204 587.9083,-443.8692 597.9227,-440.4106 593.5802,-434.9204"/>
<polygon fill="#CC6699" stroke="#CC6699" points="660.1202,-391.2149 665.7921,-382.2662 655.7776,-385.7247 660.1202,-391.2149"/>
</g>
<!-- eth0 -->
<g id="node4" class="node">
<title>eth0</title>
<g id="a_node4"><a xlink:href="https://192.168.0.66:8006" xlink:title="&lt;TABLE&gt;" target="blank">
<image xlink:href="icons/proxmox.png" width="42px" height="42px" preserveAspectRatio="xMinYMin meet" x="325.5" y="-400"/>
<polygon fill="#add8e6" stroke="transparent" points="283,-331 283,-354 410,-354 410,-331 283,-331"/>
<text text-anchor="start" x="303" y="-339.8" font-family="Times,serif" font-weight="bold" font-size="14.00" fill="#000000">PROXMOX</text>
<text text-anchor="start" x="287" y="-315.8" font-family="Times,serif" font-size="14.00" fill="#FFCC66">IP: 192.168.0.66</text>
</a>
</g>
</g>
<!-- upc&#45;&gt;eth0 -->
<g id="edge7" class="edge">
<title>upc&#45;&gt;eth0</title>
<path fill="none" stroke="#CC6699" d="M448.4855,-437.5225C438.9219,-429.9151 429.1236,-422.1211 419.5593,-414.5131"/>
<polygon fill="#CC6699" stroke="#CC6699" points="446.4592,-440.383 456.4641,-443.8692 450.8169,-434.9048 446.4592,-440.383"/>
<polygon fill="#CC6699" stroke="#CC6699" points="421.5955,-411.6605 411.5906,-408.1744 417.2378,-417.1388 421.5955,-411.6605"/>
</g>
<!-- printer -->
<g id="node10" class="node">
<title>printer</title>
<g id="a_node10"><a xlink:href="http://192.168.0.14/" xlink:title="&lt;TABLE&gt;" target="blank">
<image xlink:href="icons/printer.svg" width="42px" height="42px" preserveAspectRatio="xMinYMin meet" x="589.5" y="-260"/>
<polygon fill="#add8e6" stroke="transparent" points="540,-191 540,-214 681,-214 681,-191 540,-191"/>
<text text-anchor="start" x="544" y="-199.8" font-family="Times,serif" font-weight="bold" font-size="14.00" fill="#000000">HP OfficeJet Pro</text>
<text text-anchor="start" x="544" y="-175.8" font-family="Times,serif" font-size="14.00" fill="#FFCC66">IP: 192.168.0.14</text>
</a>
</g>
</g>
<!-- wifi&#45;&gt;printer -->
<g id="edge9" class="edge">
<title>wifi&#45;&gt;printer</title>
<path fill="none" stroke="#CC6699" d="M675.0111,-318.2647C666.9046,-305.5129 657.6357,-290.9326 648.686,-276.8543"/>
<polygon fill="#CC6699" stroke="#CC6699" points="672.2406,-320.4305 680.5591,-326.9919 678.1479,-316.6751 672.2406,-320.4305"/>
<polygon fill="#CC6699" stroke="#CC6699" points="651.4866,-274.7358 643.168,-268.1744 645.5792,-278.4912 651.4866,-274.7358"/>
</g>
<!-- radio -->
<g id="node11" class="node">
<title>radio</title>
<g id="a_node11"><a xlink:href="http://192.168.0.204/" xlink:title="&lt;TABLE&gt;" target="blank">
<image xlink:href="icons/radio.svg" width="42px" height="42px" preserveAspectRatio="xMinYMin meet" x="768" y="-260"/>
<polygon fill="#add8e6" stroke="transparent" points="721,-191 721,-214 857,-214 857,-191 721,-191"/>
<text text-anchor="start" x="766" y="-199.8" font-family="Times,serif" font-weight="bold" font-size="14.00" fill="#000000">Radio</text>
<text text-anchor="start" x="725" y="-175.8" font-family="Times,serif" font-size="14.00" fill="#FFCC66">IP: 192.168.0.204</text>
</a>
</g>
</g>
<!-- wifi&#45;&gt;radio -->
<g id="edge10" class="edge">
<title>wifi&#45;&gt;radio</title>
<path fill="none" stroke="#CC6699" d="M723.2584,-318.2647C731.456,-305.5129 740.8291,-290.9326 749.8794,-276.8543"/>
<polygon fill="#CC6699" stroke="#CC6699" points="720.1115,-316.6874 717.6481,-326.9919 725.9998,-320.4728 720.1115,-316.6874"/>
<polygon fill="#CC6699" stroke="#CC6699" points="752.9958,-278.4788 755.4593,-268.1744 747.1076,-274.6935 752.9958,-278.4788"/>
</g>
<!-- kodi -->
<g id="node12" class="node">
<title>kodi</title>
<g id="a_node12"><a xlink:href="http://192.168.0.19/" xlink:title="&lt;TABLE&gt;" target="blank">
<image xlink:href="icons/kodi.png" width="42px" height="42px" preserveAspectRatio="xMinYMin meet" x="940.5" y="-260"/>
<polygon fill="#add8e6" stroke="transparent" points="898,-191 898,-214 1025,-214 1025,-191 898,-191"/>
<text text-anchor="start" x="938.5" y="-199.8" font-family="Times,serif" font-weight="bold" font-size="14.00" fill="#000000">Kodi</text>
<text text-anchor="start" x="902" y="-175.8" font-family="Times,serif" font-size="14.00" fill="#FFCC66">IP: 192.168.0.19</text>
</a>
</g>
</g>
<!-- wifi&#45;&gt;kodi -->
<g id="edge11" class="edge">
<title>wifi&#45;&gt;kodi</title>
<path fill="none" stroke="#CC6699" d="M741.5409,-339.6602C778.3467,-324.8768 832.4998,-301.557 877,-276 878.4958,-275.1409 879.9979,-274.2617 881.5036,-273.3649"/>
<polygon fill="#CC6699" stroke="#CC6699" points="740.1055,-336.4644 732.1087,-343.4144 742.6941,-342.9682 740.1055,-336.4644"/>
<polygon fill="#CC6699" stroke="#CC6699" points="883.4588,-276.2716 890.1497,-268.0568 879.7964,-270.3061 883.4588,-276.2716"/>
</g>
<!-- vm100 -->
<g id="node5" class="node">
<title>vm100</title>
<image xlink:href="icons/arch.png" width="42px" height="42px" preserveAspectRatio="xMinYMin meet" x="406.5" y="-260"/>
<polygon fill="#add8e6" stroke="transparent" points="364,-191 364,-214 491,-214 491,-191 364,-191"/>
<text text-anchor="start" x="382" y="-199.8" font-family="Times,serif" font-weight="bold" font-size="14.00" fill="#000000">ArchServer</text>
<text text-anchor="start" x="368" y="-175.8" font-family="Times,serif" font-size="14.00" fill="#FFCC66">IP: 192.168.0.60</text>
</g>
<!-- eth0&#45;&gt;vm100 -->
<g id="edge1" class="edge">
<title>eth0&#45;&gt;vm100</title>
<path fill="none" stroke="#CC6699" d="M381.2857,-295.0124C384.7631,-289.0021 388.2926,-282.9017 391.7694,-276.8924"/>
<polygon fill="#CC6699" stroke="#CC6699" points="378.1399,-293.4607 376.1614,-303.8692 384.1989,-296.9663 378.1399,-293.4607"/>
<polygon fill="#CC6699" stroke="#CC6699" points="394.8349,-278.5828 396.8134,-268.1744 388.7759,-275.0773 394.8349,-278.5828"/>
</g>
<!-- vm101 -->
<g id="node6" class="node">
<title>vm101</title>
<g id="a_node6"><a xlink:href="http://192.168.0.10/admin/" xlink:title="&lt;TABLE&gt;" target="blank">
<image xlink:href="icons/pihole.png" width="42px" height="42px" preserveAspectRatio="xMinYMin meet" x="245.5" y="-260"/>
<polygon fill="#add8e6" stroke="transparent" points="203,-191 203,-214 330,-214 330,-191 203,-191"/>
<text text-anchor="start" x="236" y="-199.8" font-family="Times,serif" font-weight="bold" font-size="14.00" fill="#000000">PI&#45;Hole</text>
<text text-anchor="start" x="207" y="-175.8" font-family="Times,serif" font-size="14.00" fill="#FFCC66">IP: 192.168.0.10</text>
</a>
</g>
</g>
<!-- eth0&#45;&gt;vm101 -->
<g id="edge2" class="edge">
<title>eth0&#45;&gt;vm101</title>
<path fill="none" stroke="#CC6699" d="M311.1499,-295.0124C307.7155,-289.0021 304.2295,-282.9017 300.7957,-276.8924"/>
<polygon fill="#CC6699" stroke="#CC6699" points="308.2107,-296.9232 316.211,-303.8692 314.2884,-293.4502 308.2107,-296.9232"/>
<polygon fill="#CC6699" stroke="#CC6699" points="303.8142,-275.1203 295.8139,-268.1744 297.7365,-278.5933 303.8142,-275.1203"/>
</g>
<!-- vm102 -->
<g id="node7" class="node">
<title>vm102</title>
<g id="a_node7"><a xlink:href="http://192.168.0.200" xlink:title="&lt;TABLE&gt;" target="blank">
<image xlink:href="icons/omv.png" width="42px" height="42px" preserveAspectRatio="xMinYMin meet" x="79" y="-260"/>
<polygon fill="#add8e6" stroke="transparent" points="32,-191 32,-214 168,-214 168,-191 32,-191"/>
<text text-anchor="start" x="69.5" y="-199.8" font-family="Times,serif" font-weight="bold" font-size="14.00" fill="#000000">OMV</text>
<text text-anchor="start" x="36" y="-175.8" font-family="Times,serif" font-size="14.00" fill="#FFCC66">IP: 192.168.0.200</text>
</a>
</g>
</g>
<!-- eth0&#45;&gt;vm102 -->
<g id="edge3" class="edge">
<title>eth0&#45;&gt;vm102</title>
<path fill="none" stroke="#CC6699" d="M265.326,-318.5115C239.5547,-305.7852 211.1926,-290.9783 186,-276 184.6797,-275.215 183.353,-274.4166 182.0217,-273.6064"/>
<polygon fill="#CC6699" stroke="#CC6699" points="263.8044,-321.6635 274.3241,-322.9231 266.8859,-315.3782 263.8044,-321.6635"/>
<polygon fill="#CC6699" stroke="#CC6699" points="183.5286,-270.4218 173.1894,-268.1083 179.8293,-276.3644 183.5286,-270.4218"/>
</g>
<!-- vm100ct1 -->
<g id="node9" class="node">
<title>vm100ct1</title>
<g id="a_node9"><a xlink:href="https://192.168.0.60:5601" xlink:title="&lt;TABLE&gt;" target="blank">
<image xlink:href="icons/kibana.png" width="42px" height="42px" preserveAspectRatio="xMinYMin meet" x="406.5" y="-120"/>
<polygon fill="#add8e6" stroke="transparent" points="364,-51 364,-74 491,-74 491,-51 364,-51"/>
<text text-anchor="start" x="399" y="-59.8" font-family="Times,serif" font-weight="bold" font-size="14.00" fill="#000000">Kibana</text>
<text text-anchor="start" x="368" y="-35.8" font-family="Times,serif" font-size="14.00" fill="#FFCC66">IP: 192.168.0.60</text>
</a>
</g>
</g>
<!-- vm100&#45;&gt;vm100ct1 -->
<g id="edge4" class="edge">
<title>vm100&#45;&gt;vm100ct1</title>
<path fill="none" stroke="#CC6699" d="M427,-153.6131C427,-148.5675 427,-143.4686 427,-138.4228"/>
<polygon fill="#CC6699" stroke="#CC6699" points="423.5001,-153.8691 427,-163.8692 430.5001,-153.8692 423.5001,-153.8691"/>
<polygon fill="#CC6699" stroke="#CC6699" points="430.5001,-138.1743 427,-128.1744 423.5001,-138.1744 430.5001,-138.1743"/>
</g>
<!-- vm102ct1 -->
<g id="node8" class="node">
<title>vm102ct1</title>
<g id="a_node8"><a xlink:href="http://192.168.0.200:8000" xlink:title="&lt;TABLE&gt;" target="blank">
<image xlink:href="icons/pyload.png" width="42px" height="42px" preserveAspectRatio="xMinYMin meet" x="79" y="-120"/>
<polygon fill="#add8e6" stroke="transparent" points="32,-51 32,-74 168,-74 168,-51 32,-51"/>
<text text-anchor="start" x="69.5" y="-59.8" font-family="Times,serif" font-weight="bold" font-size="14.00" fill="#000000">PyLoad</text>
<text text-anchor="start" x="36" y="-35.8" font-family="Times,serif" font-size="14.00" fill="#FFCC66">IP: 192.168.0.200</text>
</a>
</g>
</g>
<!-- vm102&#45;&gt;vm102ct1 -->
<g id="edge5" class="edge">
<title>vm102&#45;&gt;vm102ct1</title>
<path fill="none" stroke="#CC6699" d="M100,-153.6131C100,-148.5675 100,-143.4686 100,-138.4228"/>
<polygon fill="#CC6699" stroke="#CC6699" points="96.5001,-153.8691 100,-163.8692 103.5001,-153.8692 96.5001,-153.8691"/>
<polygon fill="#CC6699" stroke="#CC6699" points="103.5001,-138.1743 100,-128.1744 96.5001,-138.1744 103.5001,-138.1743"/>
</g>
</g>
</svg>
