<?xml version="1.0" encoding="UTF-8" standalone="no"?>
<!DOCTYPE svg PUBLIC "-//W3C//DTD SVG 1.1//EN"
 "http://www.w3.org/Graphics/SVG/1.1/DTD/svg11.dtd">
<!-- Generated by graphviz version 2.50.0 (0)
 -->
<!-- Title: BatCaveNetwork Pages: 1 -->
<svg width="1412pt" height="806pt"
 viewBox="0.00 0.00 1412.00 806.00" xmlns="http://www.w3.org/2000/svg" xmlns:xlink="http://www.w3.org/1999/xlink">
<g id="graph0" class="graph" transform="scale(1 1) rotate(0) translate(4 802)">
<title>BatCaveNetwork</title>
<polygon fill="black" stroke="transparent" points="-4,4 -4,-802 1408,-802 1408,4 -4,4"/>
<g id="clust1" class="cluster">
<title>cluster_cloud</title>
</g>
<g id="clust2" class="cluster">
<title>cluster_modem</title>
<polygon fill="black" stroke="black" points="885,-576 885,-696 1035,-696 1035,-576 885,-576"/>
</g>
<g id="clust3" class="cluster">
<title>cluster_linksys</title>
<polygon fill="black" stroke="black" stroke-dasharray="1,5" points="881,-436 881,-556 1039,-556 1039,-436 881,-436"/>
</g>
<g id="clust4" class="cluster">
<title>cluster_proxmox</title>
<polygon fill="black" stroke="#c77000" points="8,-8 8,-416 690,-416 690,-8 8,-8"/>
</g>
<g id="clust5" class="cluster">
<title>cluster_proxmox_intern</title>
<polygon fill="black" stroke="#c77000" stroke-dasharray="1,5" points="16,-16 16,-276 682,-276 682,-16 16,-16"/>
</g>
<g id="clust6" class="cluster">
<title>cluster_printer</title>
<polygon fill="black" stroke="#c77000" points="698,-296 698,-416 868,-416 868,-296 698,-296"/>
</g>
<g id="clust7" class="cluster">
<title>cluster_radio</title>
<polygon fill="black" stroke="#c77000" points="876,-296 876,-416 1044,-416 1044,-296 876,-296"/>
</g>
<g id="clust8" class="cluster">
<title>cluster_kodi</title>
<polygon fill="black" stroke="#c77000" points="1052,-296 1052,-416 1220,-416 1220,-296 1052,-296"/>
</g>
<g id="clust9" class="cluster">
<title>cluster_raspi</title>
<polygon fill="black" stroke="#c77000" points="1228,-296 1228,-416 1396,-416 1396,-296 1228,-296"/>
</g>
<!-- cloud -->
<g id="node1" class="node">
<title>cloud</title>
<g id="a_node1"><a xlink:href="https://www.google.com" xlink:title="&lt;TABLE&gt;" target="blank">
<image xlink:href="icons/cloud.svg" width="42px" height="42px" preserveAspectRatio="xMinYMin meet" x="939" y="-774"/>
</a>
</g>
</g>
<!-- upc -->
<g id="node2" class="node">
<title>upc</title>
<g id="a_node2"><a xlink:href="http://192.168.0.1/" xlink:title="&lt;TABLE&gt;" target="blank">
<image xlink:href="icons/upc.png" width="42px" height="42px" preserveAspectRatio="xMinYMin meet" x="939.5" y="-680"/>
<polygon fill="lightblue" stroke="transparent" points="902,-611 902,-634 1019,-634 1019,-611 902,-611"/>
<text text-anchor="start" x="913.5" y="-619.8" font-family="Times,serif" font-weight="bold" font-size="14.00">UPC Router</text>
<text text-anchor="start" x="906" y="-595.8" font-family="Times,serif" font-size="14.00" fill="#ffcc66">IP: 192.168.0.1</text>
</a>
</g>
</g>
<!-- cloud&#45;&gt;upc -->
<g id="edge8" class="edge">
<title>cloud&#45;&gt;upc</title>
<path fill="none" stroke="#cc6699" d="M960,-713.84C960,-708.83 960,-703.6 960,-698.33"/>
<polygon fill="#cc6699" stroke="#cc6699" points="956.5,-713.87 960,-723.87 963.5,-713.87 956.5,-713.87"/>
<polygon fill="#cc6699" stroke="#cc6699" points="963.5,-698.18 960,-688.18 956.5,-698.18 963.5,-698.18"/>
</g>
<!-- wifi -->
<g id="node3" class="node">
<title>wifi</title>
<g id="a_node3"><a xlink:href="http://192.168.1.1/" xlink:title="&lt;TABLE&gt;" target="blank">
<image xlink:href="icons/wifi.svg" width="34px" height="34px" preserveAspectRatio="xMinYMin meet" x="943.5" y="-536"/>
<polygon fill="lightblue" stroke="transparent" points="898,-471 898,-494 1023,-494 1023,-471 898,-471"/>
<text text-anchor="start" x="902" y="-479.8" font-family="Times,serif" font-weight="bold" font-size="14.00">Linksis Router</text>
<text text-anchor="start" x="902" y="-455.8" font-family="Times,serif" font-size="14.00" fill="#ffcc66">IP: 192.168.1.1</text>
</a>
</g>
</g>
<!-- upc&#45;&gt;wifi -->
<g id="edge9" class="edge">
<title>upc&#45;&gt;wifi</title>
<path fill="none" stroke="#cc6699" d="M960,-573.5C960,-568.53 960,-563.5 960,-558.53"/>
<polygon fill="#cc6699" stroke="#cc6699" points="956.5,-573.61 960,-583.61 963.5,-573.61 956.5,-573.61"/>
<polygon fill="#cc6699" stroke="#cc6699" points="963.5,-558.43 960,-548.43 956.5,-558.43 963.5,-558.43"/>
</g>
<!-- eth0 -->
<g id="node4" class="node">
<title>eth0</title>
<g id="a_node4"><a xlink:href="https://192.168.1.66:8006" xlink:title="&lt;TABLE&gt;" target="blank">
<image xlink:href="icons/proxmox.png" width="42px" height="42px" preserveAspectRatio="xMinYMin meet" x="408" y="-400"/>
<polygon fill="lightblue" stroke="transparent" points="366,-331 366,-354 492,-354 492,-331 366,-331"/>
<text text-anchor="start" x="387" y="-339.8" font-family="Times,serif" font-weight="bold" font-size="14.00">PROXMOX</text>
<text text-anchor="start" x="370" y="-315.8" font-family="Times,serif" font-size="14.00" fill="#ffcc66">IP: 192.168.1.66</text>
</a>
</g>
</g>
<!-- wifi&#45;&gt;eth0 -->
<g id="edge10" class="edge">
<title>wifi&#45;&gt;eth0</title>
<path fill="none" stroke="#cc6699" d="M879.74,-474.14C779.85,-448.18 610.24,-404.1 510.01,-378.05"/>
<polygon fill="#cc6699" stroke="#cc6699" points="878.93,-477.55 889.49,-476.67 880.69,-470.77 878.93,-477.55"/>
<polygon fill="#cc6699" stroke="#cc6699" points="510.79,-374.64 500.23,-375.51 509.03,-381.41 510.79,-374.64"/>
</g>
<!-- printer -->
<g id="node12" class="node">
<title>printer</title>
<g id="a_node12"><a xlink:href="http://192.168.1.86/" xlink:title="&lt;TABLE&gt;" target="blank">
<image xlink:href="icons/printer.svg" width="42px" height="42px" preserveAspectRatio="xMinYMin meet" x="762.5" y="-400"/>
<polygon fill="lightblue" stroke="transparent" points="715,-331 715,-354 852,-354 852,-331 715,-331"/>
<text text-anchor="start" x="719" y="-339.8" font-family="Times,serif" font-weight="bold" font-size="14.00">HP OfficeJet Pro</text>
<text text-anchor="start" x="719" y="-315.8" font-family="Times,serif" font-size="14.00" fill="#ffcc66">IP: 192.168.1.86</text>
</a>
</g>
</g>
<!-- wifi&#45;&gt;printer -->
<g id="edge11" class="edge">
<title>wifi&#45;&gt;printer</title>
<path fill="none" stroke="#cc6699" d="M886.2,-437.46C876.44,-429.85 866.44,-422.05 856.68,-414.44"/>
<polygon fill="#cc6699" stroke="#cc6699" points="884.3,-440.42 894.34,-443.81 888.61,-434.9 884.3,-440.42"/>
<polygon fill="#cc6699" stroke="#cc6699" points="858.59,-411.5 848.55,-408.11 854.28,-417.02 858.59,-411.5"/>
</g>
<!-- radio -->
<g id="node13" class="node">
<title>radio</title>
<g id="a_node13"><a xlink:href="http://192.168.1.204/" xlink:title="&lt;TABLE&gt;" target="blank">
<image xlink:href="icons/radio.svg" width="42px" height="42px" preserveAspectRatio="xMinYMin meet" x="939.5" y="-400"/>
<polygon fill="lightblue" stroke="transparent" points="893,-331 893,-354 1028,-354 1028,-331 893,-331"/>
<text text-anchor="start" x="937.5" y="-339.8" font-family="Times,serif" font-weight="bold" font-size="14.00">Radio</text>
<text text-anchor="start" x="897" y="-315.8" font-family="Times,serif" font-size="14.00" fill="#ffcc66">IP: 192.168.1.204</text>
</a>
</g>
</g>
<!-- wifi&#45;&gt;radio -->
<g id="edge12" class="edge">
<title>wifi&#45;&gt;radio</title>
<path fill="none" stroke="#cc6699" d="M960,-433.5C960,-428.53 960,-423.5 960,-418.53"/>
<polygon fill="#cc6699" stroke="#cc6699" points="956.5,-433.61 960,-443.61 963.5,-433.61 956.5,-433.61"/>
<polygon fill="#cc6699" stroke="#cc6699" points="963.5,-418.43 960,-408.43 956.5,-418.43 963.5,-418.43"/>
</g>
<!-- kodi -->
<g id="node14" class="node">
<title>kodi</title>
<g id="a_node14"><a xlink:href="http://192.168.1.128/" xlink:title="&lt;TABLE&gt;" target="blank">
<image xlink:href="icons/kodi.png" width="42px" height="42px" preserveAspectRatio="xMinYMin meet" x="1115.5" y="-400"/>
<polygon fill="lightblue" stroke="transparent" points="1069,-331 1069,-354 1204,-354 1204,-331 1069,-331"/>
<text text-anchor="start" x="1118" y="-339.8" font-family="Times,serif" font-weight="bold" font-size="14.00">Kodi</text>
<text text-anchor="start" x="1073" y="-315.8" font-family="Times,serif" font-size="14.00" fill="#ffcc66">IP: 192.168.1.128</text>
</a>
</g>
</g>
<!-- wifi&#45;&gt;kodi -->
<g id="edge13" class="edge">
<title>wifi&#45;&gt;kodi</title>
<path fill="none" stroke="#cc6699" d="M1033.57,-437.32C1043.2,-429.77 1053.06,-422.03 1062.69,-414.49"/>
<polygon fill="#cc6699" stroke="#cc6699" points="1031.25,-434.69 1025.54,-443.61 1035.56,-440.2 1031.25,-434.69"/>
<polygon fill="#cc6699" stroke="#cc6699" points="1064.99,-417.12 1070.7,-408.2 1060.67,-411.62 1064.99,-417.12"/>
</g>
<!-- raspi -->
<g id="node15" class="node">
<title>raspi</title>
<image xlink:href="icons/raspi.png" width="42px" height="42px" preserveAspectRatio="xMinYMin meet" x="1291.5" y="-400"/>
<polygon fill="lightblue" stroke="transparent" points="1245,-331 1245,-354 1380,-354 1380,-331 1245,-331"/>
<text text-anchor="start" x="1252.5" y="-339.8" font-family="Times,serif" font-weight="bold" font-size="14.00">Raspberry Hub</text>
<text text-anchor="start" x="1249" y="-315.8" font-family="Times,serif" font-size="14.00" fill="#ffcc66">IP: 192.168.1.102</text>
</g>
<!-- wifi&#45;&gt;raspi -->
<g id="edge14" class="edge">
<title>wifi&#45;&gt;raspi</title>
<path fill="none" stroke="#cc6699" d="M1040.53,-477.57C1094.04,-464.4 1165.04,-443.81 1224,-416 1226.03,-415.04 1228.06,-414.04 1230.1,-413.01"/>
<polygon fill="#cc6699" stroke="#cc6699" points="1039.64,-474.19 1030.75,-479.95 1041.3,-480.99 1039.64,-474.19"/>
<polygon fill="#cc6699" stroke="#cc6699" points="1231.83,-416.05 1239.01,-408.26 1228.54,-409.87 1231.83,-416.05"/>
</g>
<!-- vm100 -->
<g id="node5" class="node">
<title>vm100</title>
<image xlink:href="icons/arch.png" width="42px" height="42px" preserveAspectRatio="xMinYMin meet" x="577.5" y="-260"/>
<polygon fill="lightblue" stroke="transparent" points="531,-191 531,-214 666,-214 666,-191 531,-191"/>
<text text-anchor="start" x="554.5" y="-199.8" font-family="Times,serif" font-weight="bold" font-size="14.00">ArchServer</text>
<text text-anchor="start" x="535" y="-175.8" font-family="Times,serif" font-size="14.00" fill="#ffcc66">IP: 192.168.1.207</text>
</g>
<!-- eth0&#45;&gt;vm100 -->
<g id="edge1" class="edge">
<title>eth0&#45;&gt;vm100</title>
<path fill="none" stroke="#cc6699" d="M499.98,-297.04C509.05,-289.63 518.34,-282.05 527.4,-274.65"/>
<polygon fill="#cc6699" stroke="#cc6699" points="497.46,-294.58 491.93,-303.61 501.89,-300 497.46,-294.58"/>
<polygon fill="#cc6699" stroke="#cc6699" points="529.77,-277.24 535.3,-268.2 525.34,-271.81 529.77,-277.24"/>
</g>
<!-- vm101 -->
<g id="node6" class="node">
<title>vm101</title>
<g id="a_node6"><a xlink:href="http://192.168.1.226/admin/" xlink:title="&lt;TABLE&gt;" target="blank">
<image xlink:href="icons/pihole.png" width="42px" height="42px" preserveAspectRatio="xMinYMin meet" x="408.5" y="-260"/>
<polygon fill="lightblue" stroke="transparent" points="362,-191 362,-214 497,-214 497,-191 362,-191"/>
<text text-anchor="start" x="399" y="-199.8" font-family="Times,serif" font-weight="bold" font-size="14.00">PI&#45;Hole</text>
<text text-anchor="start" x="366" y="-175.8" font-family="Times,serif" font-size="14.00" fill="#ffcc66">IP: 192.168.1.226</text>
</a>
</g>
</g>
<!-- eth0&#45;&gt;vm101 -->
<g id="edge2" class="edge">
<title>eth0&#45;&gt;vm101</title>
<path fill="none" stroke="#cc6699" d="M429,-293.5C429,-288.53 429,-283.5 429,-278.53"/>
<polygon fill="#cc6699" stroke="#cc6699" points="425.5,-293.61 429,-303.61 432.5,-293.61 425.5,-293.61"/>
<polygon fill="#cc6699" stroke="#cc6699" points="432.5,-278.43 429,-268.43 425.5,-278.43 432.5,-278.43"/>
</g>
<!-- vm102 -->
<g id="node7" class="node">
<title>vm102</title>
<g id="a_node7"><a xlink:href="http://192.168.1.200" xlink:title="&lt;TABLE&gt;" target="blank">
<image xlink:href="icons/omv.png" width="42px" height="42px" preserveAspectRatio="xMinYMin meet" x="239.5" y="-260"/>
<polygon fill="lightblue" stroke="transparent" points="193,-191 193,-214 328,-214 328,-191 193,-191"/>
<text text-anchor="start" x="241" y="-199.8" font-family="Times,serif" font-weight="bold" font-size="14.00">OMV</text>
<text text-anchor="start" x="197" y="-175.8" font-family="Times,serif" font-size="14.00" fill="#ffcc66">IP: 192.168.1.200</text>
</a>
</g>
</g>
<!-- eth0&#45;&gt;vm102 -->
<g id="edge3" class="edge">
<title>eth0&#45;&gt;vm102</title>
<path fill="none" stroke="#cc6699" d="M358.02,-297.04C348.95,-289.63 339.66,-282.05 330.6,-274.65"/>
<polygon fill="#cc6699" stroke="#cc6699" points="356.11,-300 366.07,-303.61 360.54,-294.58 356.11,-300"/>
<polygon fill="#cc6699" stroke="#cc6699" points="332.66,-271.81 322.7,-268.2 328.23,-277.24 332.66,-271.81"/>
</g>
<!-- ct104 -->
<g id="node11" class="node">
<title>ct104</title>
<g id="a_node11"><a xlink:href="http://192.168.1.77:32400" xlink:title="&lt;TABLE&gt;" target="blank">
<image xlink:href="icons/plex.png" width="42px" height="42px" preserveAspectRatio="xMinYMin meet" x="74" y="-260"/>
<polygon fill="lightblue" stroke="transparent" points="32,-191 32,-214 158,-214 158,-191 32,-191"/>
<text text-anchor="start" x="78" y="-199.8" font-family="Times,serif" font-weight="bold" font-size="14.00">Plex</text>
<text text-anchor="start" x="36" y="-175.8" font-family="Times,serif" font-size="14.00" fill="#ffcc66">IP: 192.168.1.77</text>
</a>
</g>
</g>
<!-- eth0&#45;&gt;ct104 -->
<g id="edge4" class="edge">
<title>eth0&#45;&gt;ct104</title>
<path fill="none" stroke="#cc6699" d="M347.92,-336.9C296.95,-323.79 230.72,-303.53 176,-276 174.25,-275.12 172.5,-274.2 170.75,-273.26"/>
<polygon fill="#cc6699" stroke="#cc6699" points="347.34,-340.36 357.9,-339.42 349.06,-333.58 347.34,-340.36"/>
<polygon fill="#cc6699" stroke="#cc6699" points="172.44,-270.19 162.02,-268.28 168.97,-276.27 172.44,-270.19"/>
</g>
<!-- vm100ct1 -->
<g id="node10" class="node">
<title>vm100ct1</title>
<g id="a_node10"><a xlink:href="https://192.168.1.207:5601" xlink:title="&lt;TABLE&gt;" target="blank">
<image xlink:href="icons/kibana.png" width="42px" height="42px" preserveAspectRatio="xMinYMin meet" x="577.5" y="-120"/>
<polygon fill="lightblue" stroke="transparent" points="531,-51 531,-74 666,-74 666,-51 531,-51"/>
<text text-anchor="start" x="570.5" y="-59.8" font-family="Times,serif" font-weight="bold" font-size="14.00">Kibana</text>
<text text-anchor="start" x="535" y="-35.8" font-family="Times,serif" font-size="14.00" fill="#ffcc66">IP: 192.168.1.207</text>
</a>
</g>
</g>
<!-- vm100&#45;&gt;vm100ct1 -->
<g id="edge5" class="edge">
<title>vm100&#45;&gt;vm100ct1</title>
<path fill="none" stroke="#cc6699" d="M598,-153.5C598,-148.53 598,-143.5 598,-138.53"/>
<polygon fill="#cc6699" stroke="#cc6699" points="594.5,-153.61 598,-163.61 601.5,-153.61 594.5,-153.61"/>
<polygon fill="#cc6699" stroke="#cc6699" points="601.5,-138.43 598,-128.43 594.5,-138.43 601.5,-138.43"/>
</g>
<!-- vm102ct1 -->
<g id="node8" class="node">
<title>vm102ct1</title>
<g id="a_node8"><a xlink:href="http://192.168.1.200:8000" xlink:title="&lt;TABLE&gt;" target="blank">
<image xlink:href="icons/pyload.png" width="42px" height="42px" preserveAspectRatio="xMinYMin meet" x="159.5" y="-120"/>
<polygon fill="lightblue" stroke="transparent" points="113,-51 113,-74 248,-74 248,-51 113,-51"/>
<text text-anchor="start" x="152" y="-59.8" font-family="Times,serif" font-weight="bold" font-size="14.00">PyLoad</text>
<text text-anchor="start" x="117" y="-35.8" font-family="Times,serif" font-size="14.00" fill="#ffcc66">IP: 192.168.1.200</text>
</a>
</g>
</g>
<!-- vm102&#45;&gt;vm102ct1 -->
<g id="edge6" class="edge">
<title>vm102&#45;&gt;vm102ct1</title>
<path fill="none" stroke="#cc6699" d="M225.15,-154.88C221.8,-149.1 218.39,-143.23 215.04,-137.44"/>
<polygon fill="#cc6699" stroke="#cc6699" points="222.17,-156.72 230.21,-163.61 228.22,-153.21 222.17,-156.72"/>
<polygon fill="#cc6699" stroke="#cc6699" points="217.86,-135.33 209.81,-128.43 211.8,-138.84 217.86,-135.33"/>
</g>
<!-- vm102ct2 -->
<g id="node9" class="node">
<title>vm102ct2</title>
<g id="a_node9"><a xlink:href="http://192.168.1.200:2342" xlink:title="&lt;TABLE&gt;" target="blank">
<image xlink:href="icons/prism.svg" width="42px" height="42px" preserveAspectRatio="xMinYMin meet" x="328.5" y="-120"/>
<polygon fill="lightblue" stroke="transparent" points="282,-51 282,-74 417,-74 417,-51 282,-51"/>
<text text-anchor="start" x="303" y="-59.8" font-family="Times,serif" font-weight="bold" font-size="14.00">PhotoPrism</text>
<text text-anchor="start" x="286" y="-35.8" font-family="Times,serif" font-size="14.00" fill="#ffcc66">IP: 192.168.1.200</text>
</a>
</g>
</g>
<!-- vm102&#45;&gt;vm102ct2 -->
<g id="edge7" class="edge">
<title>vm102&#45;&gt;vm102ct2</title>
<path fill="none" stroke="#cc6699" d="M298.59,-155.16C302.45,-149.18 306.37,-143.1 310.23,-137.11"/>
<polygon fill="#cc6699" stroke="#cc6699" points="295.62,-153.31 293.14,-163.61 301.5,-157.11 295.62,-153.31"/>
<polygon fill="#cc6699" stroke="#cc6699" points="313.35,-138.73 315.83,-128.43 307.47,-134.94 313.35,-138.73"/>
</g>
</g>
</svg>
