<?xml version="1.0"?>
<svg xmlns="http://www.w3.org/2000/svg" viewBox="0 0 64 64" width="512" height="512" fill = "#3A93D1"><g id="outline"><path d="M45,41V37H36V35H57V7H7V35H28v2H19v4H2V57H62V41ZM9,33V9H55V33Zm21,2h4v2H30Zm-9,4H43v2H21ZM4,55V43H16V55Zm14,0V49h2v6Zm4,0V49h2v6Zm4,0V49h2v6Zm4,0V47H18V43H46v4H36v8Zm16-4H38V49h8Zm-8,4V53h8v2ZM60,43V55H48V43Z"/><rect x="12" y="47" width="2" height="4"/><rect x="50" y="47" width="2" height="4"/><polygon points="53 25 51 25 51 29 49 29 49 31 53 31 53 25"/><rect x="11" y="11" width="2" height="2"/><rect x="15" y="11" width="2" height="2"/><rect x="45" y="29" width="2" height="2"/></g></svg>
