<?xml version="1.0" encoding="utf-8"?>
<!-- Svg Vector Icons : http://www.onlinewebfonts.com/icon -->
<!DOCTYPE svg PUBLIC "-//W3C//DTD SVG 1.1//EN" "http://www.w3.org/Graphics/SVG/1.1/DTD/svg11.dtd">
<svg version="1.1" xmlns="http://www.w3.org/2000/svg" xmlns:xlink="http://www.w3.org/1999/xlink" x="0px" y="0px" viewBox="0 0 1000 1000" enable-background="new 0 0 1000 1000" xml:space="preserve" fill = "#3A93D1">
<metadata> Svg Vector Icons : http://www.onlinewebfonts.com/icon </metadata>
<g><path d="M144.3,648.6v61.2h510.4v-61.2H144.3z M624,689.5H174.9v-20.4H624V689.5z"/><path d="M635.8,397.8H426.4c-9.8,0-17.8,8-17.8,17.9v200.5c0,9.9,0,17.9,0,17.9h245c0,0,0-8,0-17.9V415.7C653.6,405.8,645.6,397.8,635.8,397.8z M631.8,596.4c0,7.6-6.5,13.7-14.6,13.7H444.9c-8.1,0-14.6-6.2-14.6-13.7V435.5c0-7.6,6.5-13.7,14.6-13.7h172.2c8.1,0,14.6,6.2,14.6,13.7V596.4z M370,397.8H160.6c-9.8,0-17.8,8-17.8,17.9v200.5c0,9.9,0,17.9,0,17.9h245c0,0,0-8,0-17.9V415.7C387.8,405.8,379.8,397.8,370,397.8z M367.4,596.4c0,7.6-6.6,13.7-14.8,13.7H178c-8.2,0-14.8-6.2-14.8-13.7V435.5c0-7.6,6.6-13.7,14.8-13.7h174.5c8.2,0,14.8,6.2,14.8,13.7L367.4,596.4L367.4,596.4z"/><path d="M771,509.1h-77.4c-9.6,0-17.4,7.9-17.4,17.7V726H122.3V526.8c0-9.8-7.8-17.7-17.4-17.7H27.4c-9.6,0-17.4,7.9-17.4,17.7v298.4c0,9.8,0,17.7,0,17.7h112.3c0,0,0-7.9,0-17.7v-11.5h553.8v11.5c0,9.8,0,17.7,0,17.7h112.3c0,0,0-7.9,0-17.7V526.8C788.4,517,780.6,509.1,771,509.1z M769,806.2c0,7.9,0,14.3,0,14.3h-72.5c0,0,0-6.4,0-14.3v-16.9H99.8v15.9c0,7.9,0,14.3,0,14.3H31.4c0,0,0-6.4,0-14.3V545.8c0-7.9,10-14.3,10-14.3h48.5c0,0,10,6.4,10,14.3v202.6h596.7V546.9c0-7.9,10-14.3,10-14.3h52.6c0,0,10,6.4,10,14.3V806.2L769,806.2z"/><path d="M881.3,702.9h1.2V284H990l-72.3-126.9h-93.5L749,284h37.4v58.2c-5,2.6-7.4,7.7-7.4,13.7c0,8.5,5.9,15.4,14.4,15.4s15.4-6.9,15.4-15.4c0-5.2-2.6-9.9-6.6-12.7V284h55.3v418.9h3.3c-27,8-52.2,39.5-52,74.9c0.8,17,5.4,27.8,8.4,33.7c3,5.9,23.1,30.7,24.8,30.7c1.8,0,50.6,0,53,0c2.4,0,22-22.5,26.5-32.9c4.5-10.4,9.4-14.5,9.8-31.5C934.2,745.1,907.8,711.4,881.3,702.9z M789.8,261.8l45.9-83.4h69.7l44.8,83.4H789.8z M907.3,794.3c-1.7,5.9-4.6,15.8-17.3,24.3c-12.7,8.5-29,9.7-41.4,0c-6.2-4.8-13.1-14.2-14.8-18.4c-1.6-4.3-3.7-10.2-4.7-24.5c-0.1-23.6,16.6-45,30.6-49.9h19.8c16.5,7.3,31.2,31.3,31.2,49.9C910.8,780.3,908.9,788.4,907.3,794.3z"/></g>
</svg>